<svg id="Layer_1" data-name="Layer 1" xmlns="http://www.w3.org/2000/svg" viewBox="0 0 144 166.06"><defs><style>.cls-1{fill:#0d2744;}.cls-2{fill:#f68b20;}.cls-3{fill:none;stroke:#f68b20;stroke-miterlimit:10;stroke-width:3px;}</style></defs><path class="cls-1" d="M.17,98.06h13.4V145a6.68,6.68,0,0,0,6.7,6.64h103a6.78,6.78,0,0,0,6.81-6.75V98.06H144v61.67a6.36,6.36,0,0,1-6.39,6.33H6.4A6.37,6.37,0,0,1,0,159.72V98.23A.18.18,0,0,1,.17,98.06Z"/><rect class="cls-1" x="130.08" y="82.96" width="13.92" height="12.91"/><polyline class="cls-1" points="0 95.87 0 82.96 13.57 82.96 13.57 95.87"/><rect class="cls-2" y="67.51" width="13.57" height="12.91"/><rect class="cls-2" x="130.08" y="67.51" width="13.92" height="12.91"/><path class="cls-2" d="M0,64.75H13.57c.88-.36-1.26-19.36,23.33-17.38,0,0,1.72-24.54,27.84-16.42,0,0,8.69-26,33-17.19,23.5,8.56,15.83,31.35,15.83,31.35s17.55,2.3,16.16,19.64H144s.69-20.4-18.12-27.95c0,0,2.54-31.69-34.83-36.71,0,0-26.5-2.38-32.79,17.64,0,0-21.17-3-29.56,16.8C28.7,34.53.35,34.22,0,64.75Z"/><circle class="cls-3" cx="31.77" cy="134.9" r="9.84"/><circle class="cls-3" cx="71.82" cy="128.62" r="9.84"/><circle class="cls-3" cx="111.61" cy="134.9" r="9.84"/><circle class="cls-1" cx="71.82" cy="128.45" r="6.45"/><circle class="cls-1" cx="71.82" cy="70.19" r="7.65"/><circle class="cls-1" cx="71.82" cy="47.78" r="6.45"/><circle class="cls-1" cx="31.77" cy="134.9" r="6.45"/><rect class="cls-1" x="68.57" y="48.72" width="6.55" height="81.39"/><rect class="cls-1" x="48.15" y="77.85" width="7.9" height="64.78" transform="translate(84.24 -7.38) rotate(40.58)"/><rect class="cls-1" x="87.77" y="77.63" width="7.9" height="66.04" transform="translate(233.31 135.34) rotate(139.55)"/><circle class="cls-1" cx="111.61" cy="134.9" r="6.45"/><circle class="cls-1" cx="71.85" cy="47.78" r="7.65"/></svg>